<?xml version="1.0" encoding="UTF-8"?>
<svg width="29px" height="34px" viewBox="0 0 29 34" version="1.1" xmlns="http://www.w3.org/2000/svg" xmlns:xlink="http://www.w3.org/1999/xlink">
    <!-- Generator: Sketch 61 (89581) - https://sketch.com -->
    <title>shield</title>
    <desc>Created with Sketch.</desc>
    <defs>
        <linearGradient x1="23.2513629%" y1="8.38967734%" x2="86.2592263%" y2="100%" id="linearGradient-1">
            <stop stop-color="#E3E7F2" offset="0.0580658784%"></stop>
            <stop stop-color="#D0D8EE" offset="100%"></stop>
        </linearGradient>
    </defs>
    <g id="Home-Revamp" stroke="none" stroke-width="1" fill="none" fill-rule="evenodd">
        <g id="LandingPage-Elrond-Revamp" transform="translate(-705.000000, -1297.000000)" fill-rule="nonzero">
            <g id="The-Dawn-of-New-Blockchain-Era" transform="translate(80.000000, 1083.000000)">
                <g id="security-&amp;-speed" transform="translate(440.000000, 191.000000)">
                    <g id="shield" transform="translate(186.000000, 24.000000)">
                        <path d="M25.8422851,21.3693848 C24.9821778,23.7004394 23.6813965,25.7272949 21.9755859,27.3930664 C20.0339356,29.2890625 17.4914551,30.7956543 14.4187012,31.8703613 C14.3178711,31.9055176 14.2126465,31.9343262 14.1069336,31.9555664 C13.9672851,31.9831543 13.8251953,31.9980469 13.6843262,32 L13.6567383,32 C13.5065918,32 13.3557129,31.9848633 13.2060547,31.9555664 C13.1003418,31.9343262 12.996582,31.9055176 12.8962403,31.8710938 C9.81982425,30.7980957 7.27416994,29.2922363 5.33056638,27.3962403 C3.62402344,25.7304688 2.32348631,23.704834 1.46459962,21.3737793 C-0.097168,17.1354981 -0.00830075,12.4665527 0.0632324375,8.71459962 L0.064453125,8.65698244 C0.0788574375,8.347168 0.08813475,8.0217285 0.09326175,7.6623535 C0.11938475,5.89794925 1.52221681,4.43823244 3.28686525,4.33984375 C6.96606444,4.1345215 9.81225588,2.93457031 12.2441406,0.564209 L12.2653809,0.54467775 C12.6691894,0.174316375 13.1779785,-0.00732425 13.6843262,1.70840999e-05 C14.1726074,0.0065918125 14.6589356,0.18798825 15.0483399,0.54467775 L15.0690918,0.564209 C17.5014649,2.93457031 20.3476563,4.1345215 24.0268555,4.33984375 C25.7915039,4.43823244 27.1943359,5.89794925 27.220459,7.6623535 C27.2255859,8.02416994 27.2348633,8.34912113 27.2492676,8.65698244 L27.25,8.6813965 C27.3212891,12.4404297 27.409668,17.1186524 25.8422851,21.3693848 Z" id="Path" stroke="#1B46C2" fill="url(#linearGradient-1)"></path>
                        <path d="M20.8813476,16 C20.8813476,12.0267595 17.6540482,8.78905472 13.6843262,8.77490237 L13.65625,8.77490237 C9.67319318,8.77490237 6.43090819,12.0170503 6.43090819,16 C6.43090819,19.9831596 9.67315894,23.2253418 13.65625,23.2253418 L13.6816533,23.2253466 C17.6540824,23.2111893 20.8813476,19.9734504 20.8813476,16 Z" id="Path" stroke="#1B46C2" stroke-width="1.5" fill="#FDFDFF"></path>
                        <path d="M17.2761231,14.8515625 L13.6843262,18.4438476 L12.9082031,19.2199707 C12.7248535,19.4033203 12.484375,19.4948731 12.2441406,19.4948731 C12.0036621,19.4948731 11.7634278,19.4033203 11.579834,19.2199707 L9.91113281,17.5505371 C9.54443363,17.1838379 9.54443363,16.5898438 9.91113281,16.2229004 C10.2773438,15.8562012 10.8720703,15.8562012 11.2387695,16.2229004 L12.2441406,17.2282715 L15.9484863,13.5239258 C16.3151856,13.1569824 16.9099121,13.1569824 17.2761231,13.5239258 C17.6428222,13.890625 17.6428222,14.4853516 17.2761231,14.8515625 Z" id="Path" fill="#1B46C2"></path>
                    </g>
                </g>
            </g>
        </g>
    </g>
</svg>