<svg xmlns="http://www.w3.org/2000/svg" width="18" height="18" viewBox="0 0 18 18">
    <defs>
        <linearGradient id="a" x1="17.203%" x2="94.397%" y1="8.336%" y2="100%">
            <stop offset=".058%" stop-color="#E3E7F2"/>
            <stop offset="100%" stop-color="#D0D8EE"/>
        </linearGradient>
        <linearGradient id="b" x1="13.064%" y1="8.336%" y2="100%">
            <stop offset=".058%" stop-color="#E3E7F2"/>
            <stop offset="100%" stop-color="#D0D8EE"/>
        </linearGradient>
    </defs>
    <g fill="none" fill-rule="nonzero">
        <path fill="#8097D8" d="M17.073 7.333h-.932a7.289 7.289 0 0 0-.913-2.204l.659-.66a.594.594 0 0 0 0-.838L14.37 2.113a.594.594 0 0 0-.839 0l-.66.66a7.288 7.288 0 0 0-2.203-.914V.927a.594.594 0 0 0-.594-.594H7.927a.593.593 0 0 0-.594.594v.932c-.78.181-1.524.49-2.204.913l-.66-.66a.594.594 0 0 0-.838 0L2.113 3.632a.594.594 0 0 0 0 .839l.66.66a7.289 7.289 0 0 0-.914 2.203H.927a.593.593 0 0 0-.594.594v2.146a.594.594 0 0 0 .594.594h.932c.181.78.49 1.524.913 2.204l-.659.66a.594.594 0 0 0 0 .838l1.518 1.518a.594.594 0 0 0 .839 0l.66-.66c.679.424 1.423.733 2.203.914v.932a.594.594 0 0 0 .594.594h2.146a.594.594 0 0 0 .594-.594v-.932a7.289 7.289 0 0 0 2.204-.913l.66.66a.594.594 0 0 0 .838 0l1.518-1.519a.594.594 0 0 0 0-.839l-.66-.66c.424-.679.733-1.423.914-2.203h.932a.594.594 0 0 0 .594-.594V7.927a.594.594 0 0 0-.594-.594z" opacity=".496"/>
        <path fill="url(#a)" d="M16.073 7.333h-.932a7.289 7.289 0 0 0-.913-2.204l.66-.66a.594.594 0 0 0 0-.838l-1.519-1.518c-.231-.232-.47.322-.702.554L12 2.333c-.67-.417-.542-.29-1.333-.474V.927a.594.594 0 0 0-.594-.594H7.927a.594.594 0 0 0-.594.594v.932c-.78.181-1.524.49-2.204.913l-.66-.66a.594.594 0 0 0-.838 0L2.113 3.632a.594.594 0 0 0 0 .839l.66.66a7.289 7.289 0 0 0-.914 2.203H.927a.594.594 0 0 0-.594.594v2.146c0 .328.266.594.594.594h.932c.181.78.49 1.524.913 2.204l-.66.66a.594.594 0 0 0 0 .838l1.519 1.518a.594.594 0 0 0 .839 0l.66-.66c.679.424 1.423.733 2.203.914v.932c0 .328.266.594.594.594h2.146a.594.594 0 0 0 .594-.594v-.932c.791-.184.663-.057 1.333-.474.667-.216 1.433.157 2.029-.44l.858-.858a.594.594 0 0 0 0-.839l-.66-.66c.424-.679.733-1.423.914-2.203h.932a.594.594 0 0 0 .594-.594V7.927a.594.594 0 0 0-.594-.594z"/>
        <circle cx="9" cy="9" r="5" fill="#1B46C2"/>
        <path fill="#8097D8" d="M.927 10.667h.932c.181.78.49 1.524.913 2.204l-.659.659a.594.594 0 0 0 0 .84l1.518 1.517a.594.594 0 0 0 .839 0l.08-.08-1.437-1.438a.594.594 0 0 1 0-.839l.66-.66a7.29 7.29 0 0 1-.914-2.203h-.932a.594.594 0 0 1-.594-.594V7.927c0-.328.266-.594.594-.594h.932c.181-.78.49-1.524.913-2.204l-.66-.66a.594.594 0 0 1 0-.839l.86-.858c.215-.213.503-.338.806-.351l-.308-.308a.594.594 0 0 0-.84 0L2.114 3.63a.594.594 0 0 0 0 .84l.66.66a7.288 7.288 0 0 0-.914 2.203H.927a.594.594 0 0 0-.594.594v2.146a.594.594 0 0 0 .594.594z" opacity=".497"/>
        <circle cx="9" cy="9" r="3" fill="url(#b)"/>
        <g fill="#1B46C2">
            <path d="M9 13.667a4.667 4.667 0 1 1 0-9.334 4.667 4.667 0 0 1 0 9.334zM9 5a4 4 0 1 0 0 8 4 4 0 0 0 0-8z"/>
            <path d="M10.073 18H7.927A.928.928 0 0 1 7 17.073v-.672a7.618 7.618 0 0 1-1.819-.754l-.475.476a.949.949 0 0 1-1.311 0l-1.518-1.518a.927.927 0 0 1 0-1.31l.476-.476A7.616 7.616 0 0 1 1.599 11H.927A.928.928 0 0 1 0 10.073V7.927C0 7.415.415 7 .927 7h.672a7.599 7.599 0 0 1 .754-1.819l-.476-.475a.927.927 0 0 1 0-1.311l1.518-1.518a.949.949 0 0 1 1.31 0l.476.476A7.618 7.618 0 0 1 7 1.599V.927C7 .415 7.415 0 7.927 0h2.146c.512 0 .926.415.927.927v.672a7.618 7.618 0 0 1 1.819.754l.475-.476a.95.95 0 0 1 1.311 0l1.518 1.518a.927.927 0 0 1 0 1.31l-.476.476c.33.571.583 1.183.754 1.819h.672c.512 0 .926.415.927.927v2.146a.928.928 0 0 1-.927.927h-.672a7.618 7.618 0 0 1-.754 1.819l.476.475a.927.927 0 0 1 0 1.311l-1.518 1.518a.949.949 0 0 1-1.31 0l-.476-.476a7.618 7.618 0 0 1-1.819.754v.672a.928.928 0 0 1-.927.927zM5.13 14.895c.062 0 .124.017.176.05.649.404 1.36.698 2.104.871.15.035.258.17.258.325v.932c0 .144.116.26.26.26h2.146a.26.26 0 0 0 .26-.26v-.932c0-.155.107-.29.258-.325a6.954 6.954 0 0 0 2.104-.871.333.333 0 0 1 .411.047l.66.66a.26.26 0 0 0 .368 0l1.517-1.518a.26.26 0 0 0 0-.368l-.659-.66a.333.333 0 0 1-.047-.411c.404-.649.698-1.36.871-2.104a.333.333 0 0 1 .325-.258h.932a.26.26 0 0 0 .26-.26V7.927a.26.26 0 0 0-.26-.26h-.932a.333.333 0 0 1-.325-.258 6.948 6.948 0 0 0-.871-2.104.333.333 0 0 1 .047-.411l.66-.66a.26.26 0 0 0 0-.368L14.133 2.35a.26.26 0 0 0-.368 0l-.66.659c-.109.11-.28.13-.411.047a6.954 6.954 0 0 0-2.104-.871.333.333 0 0 1-.258-.325V.927a.26.26 0 0 0-.26-.26H7.927a.26.26 0 0 0-.26.26v.932c0 .155-.107.29-.258.325a6.954 6.954 0 0 0-2.104.871.332.332 0 0 1-.411-.047l-.66-.66a.26.26 0 0 0-.368 0L2.35 3.867a.26.26 0 0 0 0 .368l.659.66c.11.11.13.28.047.411a6.948 6.948 0 0 0-.871 2.104.333.333 0 0 1-.325.258H.927a.26.26 0 0 0-.26.26v2.146c0 .144.116.26.26.26h.932c.155 0 .29.107.325.258.173.744.467 1.455.871 2.104a.333.333 0 0 1-.047.411l-.66.66a.26.26 0 0 0 0 .368l1.518 1.517a.26.26 0 0 0 .368 0l.66-.659a.333.333 0 0 1 .235-.097z"/>
            <path d="M9 12.333a3.333 3.333 0 1 1 0-6.666 3.333 3.333 0 0 1 0 6.666zm0-6a2.667 2.667 0 1 0 0 5.334 2.667 2.667 0 0 0 0-5.334z"/>
        </g>
    </g>
</svg>
