<?xml version="1.0" encoding="UTF-8"?>
<svg width="33px" height="33px" viewBox="0 0 33 33" version="1.1" xmlns="http://www.w3.org/2000/svg" xmlns:xlink="http://www.w3.org/1999/xlink">
    <!-- Generator: Sketch 61 (89581) - https://sketch.com -->
    <title>48px_chart-pie-36</title>
    <desc>Created with Sketch.</desc>
    <defs>
        <linearGradient x1="13.0642361%" y1="8.3364521%" x2="100%" y2="100%" id="linearGradient-1">
            <stop stop-color="#E3E7F2" offset="0.0580658784%"></stop>
            <stop stop-color="#D0D8EE" offset="100%"></stop>
        </linearGradient>
    </defs>
    <g id="Home-Revamp" stroke="none" stroke-width="1" fill="none" fill-rule="evenodd">
        <g id="LandingPage-Elrond-Revamp" transform="translate(-1209.000000, -6211.000000)" fill-rule="nonzero">
            <g id="A-Token-to-Fuel-the-Elrond-Economy" transform="translate(165.000000, 6007.000000)">
                <g id="Staked" transform="translate(1009.000000, 180.000000)">
                    <g id="48px_chart-pie-36" transform="translate(36.000000, 24.000000)">
                        <path d="M18.1818182,0 C17.7798327,0 17.4545455,0.325636364 17.4545455,0.727272727 L17.4545455,13.8181818 C17.4545455,14.2198182 17.7798327,14.5454545 18.1818182,14.5454545 L31.2727273,14.5454545 C31.6747127,14.5454545 32,14.2198182 32,13.8181818 C32,6.19886545 25.8011345,0 18.1818182,0 Z" id="Path" fill="#1B46C2"></path>
                        <path d="M26.9090909,17.4545455 L14.5454545,17.4545455 L14.5454545,5.09090909 C14.5454545,4.68927273 14.2201673,4.36363636 13.8181818,4.36363636 C6.19886545,4.36363636 0,10.5625018 0,18.1818182 C0,25.8011345 6.19886545,32 13.8181818,32 C21.4374982,32 27.6363636,25.8011345 27.6363636,18.1818182 C27.6363636,17.7801818 27.3110764,17.4545455 26.9090909,17.4545455 Z" id="Path" stroke="#1B46C2" stroke-width="1.5" fill="url(#linearGradient-1)"></path>
                        <path d="M14.5454545,17.4545455 L14.5454545,5.09090909 C14.5454545,4.68927273 14.2201673,4.36363636 13.8181818,4.36363636 C6.19886545,4.36363636 0,10.5625018 0,18.1818182 C0,18.8925738 0.21358937,19.7242595 0.640768109,20.6768754 L14.5454545,17.4545455 Z" id="Path" fill="#E0E1E5" opacity="0.390671503"></path>
                    </g>
                </g>
            </g>
        </g>
    </g>
</svg>