<?xml version="1.0" encoding="UTF-8"?>
<svg width="477px" height="757px" viewBox="0 0 477 757" version="1.1" xmlns="http://www.w3.org/2000/svg" xmlns:xlink="http://www.w3.org/1999/xlink">
    <!-- Generator: Sketch 64 (93537) - https://sketch.com -->
    <title>tall</title>
    <desc>Created with Sketch.</desc>
    <defs>
        <linearGradient x1="100%" y1="50%" x2="0%" y2="50%" id="linearGradient-1">
            <stop stop-color="#FFFFFF" offset="0%"></stop>
            <stop stop-color="#FFFFFF" offset="100%"></stop>
        </linearGradient>
    </defs>
    <g id="tall" stroke="none" stroke-width="1" fill="none" fill-rule="evenodd">
        <g id="steps-mobile" transform="translate(139.000000, 0.000000)" fill-rule="nonzero">
            <g id="Steps-Infographic" transform="translate(101.000000, 378.500000) rotate(90.000000) translate(-101.000000, -378.500000) translate(-277.000000, 278.000000)">
                <path d="M666,21 C710.18278,21 746,56.81722 746,101 C746,145.18278 710.18278,181 666,181 C633.493541,181 605.515311,161.612353 592.997782,133.769532 C580.484689,161.612353 552.506459,181 520,181 C487.053318,181 458.758343,161.083677 446.497754,132.633711 C434.241657,161.083677 405.946682,181 373,181 C340.493541,181 312.515311,161.612353 299.997782,133.769532 C287.484689,161.612353 259.506459,181 227,181 C194.053318,181 165.758343,161.083677 153.497754,132.633711 C141.241657,161.083677 112.946682,181 80,181 C35.81722,181 0,145.18278 0,101 C0,56.81722 35.81722,21 80,21 C112.946682,21 141.241657,40.9163232 153.502246,69.366289 C165.758343,40.9163232 194.053318,21 227,21 C259.506459,21 287.484689,40.3876474 300.002218,68.2304678 C312.515311,40.3876474 340.493541,21 373,21 C405.946682,21 434.241657,40.9163232 446.502246,69.366289 C458.758343,40.9163232 487.053318,21 520,21 C552.506459,21 580.484689,40.3876474 593.002218,68.2304678 C605.515311,40.3876474 633.493541,21 666,21 Z M80,34.7423313 C43.4069,34.7423313 13.7423313,64.4069 13.7423313,101 C13.7423313,137.5931 43.4069,167.257669 80,167.257669 C116.5931,167.257669 146.257669,137.5931 146.257669,101 C146.257669,64.4069 116.5931,34.7423313 80,34.7423313 Z M227,34.7423313 C190.4069,34.7423313 160.742331,64.4069 160.742331,101 C160.742331,137.5931 190.4069,167.257669 227,167.257669 C262.135802,167.257669 290.883933,139.9088 293.117962,105.337493 C293.038859,103.901511 293,102.455294 293,101 C293,99.5447064 293.038859,98.0984888 293.115595,96.662328 C290.883933,62.0912003 262.135802,34.7423313 227,34.7423313 Z M373,34.7423313 C337.864198,34.7423313 309.116067,62.0912003 306.882038,96.6625069 C306.961141,98.0984888 307,99.5447064 307,101 C307,102.455294 306.961141,103.901511 306.884405,105.337672 C309.116067,139.9088 337.864198,167.257669 373,167.257669 C409.5931,167.257669 439.257669,137.5931 439.257669,101 C439.257669,64.4069 409.5931,34.7423313 373,34.7423313 Z M520,34.7423313 C483.4069,34.7423313 453.742331,64.4069 453.742331,101 C453.742331,137.5931 483.4069,167.257669 520,167.257669 C555.135802,167.257669 583.883933,139.9088 586.117962,105.337493 C586.038859,103.901511 586,102.455294 586,101 C586,99.5447064 586.038859,98.0984888 586.115595,96.662328 C583.883933,62.0912003 555.135802,34.7423313 520,34.7423313 Z M666,34.7423313 C630.864198,34.7423313 602.116067,62.0912003 599.882038,96.6625069 C599.961141,98.0984888 600,99.5447064 600,101 C600,102.455294 599.961141,103.901511 599.884405,105.337672 C602.116067,139.9088 630.864198,167.257669 666,167.257669 C702.5931,167.257669 732.257669,137.5931 732.257669,101 C732.257669,64.4069 702.5931,34.7423313 666,34.7423313 Z" id="Combined-Shape" fill="#FFFFFF" opacity="0.295991443"></path>
                <path d="M586,101 C586,56.81722 622.041078,21 666.5,21 C710.958922,21 747,56.81722 747,101 L733.171779,101 C733.171779,64.4069 703.321807,34.7423313 666.5,34.7423313 C629.678193,34.7423313 599.828221,64.4069 599.828221,101 L600,101 C600,145.18278 564.18278,181 520,181 C475.81722,181 440,145.18278 440,101 L440.171779,101 C440.171779,64.4069 410.321807,34.7423313 373.5,34.7423313 C336.678193,34.7423313 306.828221,64.4069 306.828221,101 L307,101 C307,145.18278 271.18278,181 227,181 C182.81722,181 147,145.18278 147,101 L147.171779,101 C147.171779,64.4069 117.321807,34.7423313 80.5,34.7423313 C43.6781931,34.7423313 13.8282209,64.4069 13.8282209,101 L0,101 C0,56.81722 36.0410776,21 80.5,21 C124.958922,21 161,56.81722 161,101 L160.742331,101 C160.742331,137.5931 190.4069,167.257669 227,167.257669 C263.5931,167.257669 293.257669,137.5931 293.257669,101 L293,101 C293,56.81722 329.041078,21 373.5,21 C417.958922,21 454,56.81722 454,101 L453.742331,101 C453.742331,137.5931 483.4069,167.257669 520,167.257669 C556.5931,167.257669 586.257669,137.5931 586.257669,101 L586,101 Z" id="Combined-Shape" fill="url(#linearGradient-1)"></path>
                <circle id="Oval" fill="#FFFFFF" cx="154" cy="102" r="16"></circle>
                <circle id="Oval-Copy-11" fill="#FFFFFF" cx="300" cy="102" r="16"></circle>
                <circle id="Oval-Copy-13" fill="#FFFFFF" cx="446" cy="102" r="16"></circle>
                <circle id="Oval-Copy-16" fill="#FFFFFF" cx="592" cy="102" r="16"></circle>
                <circle id="Oval-Copy-18" fill="#FFFFFF" cx="740" cy="102" r="16"></circle>
                <circle id="Oval" fill="#1B46C2" cx="154" cy="102" r="8"></circle>
                <circle id="Oval-Copy-12" fill="#1B46C2" cx="300" cy="102" r="8"></circle>
                <circle id="Oval-Copy-15" fill="#1B46C2" cx="446" cy="102" r="8"></circle>
                <circle id="Oval-Copy-17" fill="#1B46C2" cx="592" cy="102" r="8"></circle>
                <circle id="Oval-Copy-19" fill="#1B46C2" cx="740" cy="102" r="8"></circle>
                <rect id="Rectangle" fill="#8097D8" x="227" y="181" width="1" height="20"></rect>
                <rect id="Rectangle-Copy-22" fill="#8097D8" x="79" y="1" width="1" height="20"></rect>
                <rect id="Rectangle-Copy-20" fill="#8097D8" x="521" y="181" width="1" height="20"></rect>
                <rect id="Rectangle-Copy-23" fill="#8097D8" x="372" y="1" width="1" height="20"></rect>
                <rect id="Rectangle-Copy-24" fill="#8097D8" x="666" y="0.5" width="1" height="20"></rect>
            </g>
        </g>
    </g>
</svg>