<?xml version="1.0" encoding="UTF-8"?>
<svg width="756px" height="329px" viewBox="0 0 756 329" version="1.1" xmlns="http://www.w3.org/2000/svg" xmlns:xlink="http://www.w3.org/1999/xlink">
    <!-- Generator: Sketch 64 (93537) - https://sketch.com -->
    <title>wide</title>
    <desc>Created with Sketch.</desc>
    <defs>
        <linearGradient x1="100%" y1="50%" x2="0%" y2="50%" id="linearGradient-1">
            <stop stop-color="#FFFFFF" offset="0%"></stop>
            <stop stop-color="#FFFFFF" offset="100%"></stop>
        </linearGradient>
    </defs>
    <g id="wide" stroke="none" stroke-width="1" fill="none" fill-rule="evenodd">
        <g id="steps" transform="translate(0.000000, 43.000000)" fill-rule="nonzero">
            <path d="M666,40 C710.18278,40 746,75.81722 746,120 C746,164.18278 710.18278,200 666,200 C633.493541,200 605.515311,180.612353 592.997782,152.769532 C580.484689,180.612353 552.506459,200 520,200 C487.053318,200 458.758343,180.083677 446.497754,151.633711 C434.241657,180.083677 405.946682,200 373,200 C340.493541,200 312.515311,180.612353 299.997782,152.769532 C287.484689,180.612353 259.506459,200 227,200 C194.053318,200 165.758343,180.083677 153.497754,151.633711 C141.241657,180.083677 112.946682,200 80,200 C35.81722,200 0,164.18278 0,120 C0,75.81722 35.81722,40 80,40 C112.946682,40 141.241657,59.916323 153.502246,88.366289 C165.758343,59.916323 194.053318,40 227,40 C259.506459,40 287.484689,59.387647 300.002218,87.230468 C312.515311,59.387647 340.493541,40 373,40 C405.946682,40 434.241657,59.916323 446.502246,88.366289 C458.758343,59.916323 487.053318,40 520,40 C552.506459,40 580.484689,59.387647 593.002218,87.230468 C605.515311,59.387647 633.493541,40 666,40 Z M80,53.7423313 C43.4069,53.7423313 13.7423313,83.4069 13.7423313,120 C13.7423313,156.5931 43.4069,186.257669 80,186.257669 C116.5931,186.257669 146.257669,156.5931 146.257669,120 C146.257669,83.4069 116.5931,53.7423313 80,53.7423313 Z M227,53.7423313 C190.4069,53.7423313 160.742331,83.4069 160.742331,120 C160.742331,156.5931 190.4069,186.257669 227,186.257669 C262.135802,186.257669 290.883933,158.9088 293.117962,124.337493 C293.038859,122.901511 293,121.455294 293,120 C293,118.544706 293.038859,117.098489 293.115595,115.662328 C290.883933,81.0912 262.135802,53.7423313 227,53.7423313 Z M373,53.7423313 C337.864198,53.7423313 309.116067,81.0912 306.882038,115.662507 C306.961141,117.098489 307,118.544706 307,120 C307,121.455294 306.961141,122.901511 306.884405,124.337672 C309.116067,158.9088 337.864198,186.257669 373,186.257669 C409.5931,186.257669 439.257669,156.5931 439.257669,120 C439.257669,83.4069 409.5931,53.7423313 373,53.7423313 Z M520,53.7423313 C483.4069,53.7423313 453.742331,83.4069 453.742331,120 C453.742331,156.5931 483.4069,186.257669 520,186.257669 C555.135802,186.257669 583.883933,158.9088 586.117962,124.337493 C586.038859,122.901511 586,121.455294 586,120 C586,118.544706 586.038859,117.098489 586.115595,115.662328 C583.883933,81.0912 555.135802,53.7423313 520,53.7423313 Z M666,53.7423313 C630.864198,53.7423313 602.116067,81.0912 599.882038,115.662507 C599.961141,117.098489 600,118.544706 600,120 C600,121.455294 599.961141,122.901511 599.884405,124.337672 C602.116067,158.9088 630.864198,186.257669 666,186.257669 C702.5931,186.257669 732.257669,156.5931 732.257669,120 C732.257669,83.4069 702.5931,53.7423313 666,53.7423313 Z" id="Combined-Shape" fill="#FFFFFF" opacity="0.295991443"></path>
            <path d="M586,120 C586,75.81722 622.041078,40 666.5,40 C710.958922,40 747,75.81722 747,120 L733.171779,120 C733.171779,83.4069 703.321807,53.7423313 666.5,53.7423313 C629.678193,53.7423313 599.828221,83.4069 599.828221,120 L600,120 C600,164.18278 564.18278,200 520,200 C475.81722,200 440,164.18278 440,120 L440.171779,120 C440.171779,83.4069 410.321807,53.7423313 373.5,53.7423313 C336.678193,53.7423313 306.828221,83.4069 306.828221,120 L307,120 C307,164.18278 271.18278,200 227,200 C182.81722,200 147,164.18278 147,120 L147.171779,120 C147.171779,83.4069 117.321807,53.7423313 80.5,53.7423313 C43.6781931,53.7423313 13.8282209,83.4069 13.8282209,120 L0,120 C0,75.81722 36.0410776,40 80.5,40 C124.958922,40 161,75.81722 161,120 L160.742331,120 C160.742331,156.5931 190.4069,186.257669 227,186.257669 C263.5931,186.257669 293.257669,156.5931 293.257669,120 L293,120 C293,75.81722 329.041078,40 373.5,40 C417.958922,40 454,75.81722 454,120 L453.742331,120 C453.742331,156.5931 483.4069,186.257669 520,186.257669 C556.5931,186.257669 586.257669,156.5931 586.257669,120 L586,120 Z" id="Combined-Shape" fill="url(#linearGradient-1)"></path>
            <circle id="Oval" fill="#FFFFFF" cx="154" cy="121" r="16"></circle>
            <circle id="Oval-Copy-11" fill="#FFFFFF" cx="300" cy="121" r="16"></circle>
            <circle id="Oval-Copy-13" fill="#FFFFFF" cx="446" cy="121" r="16"></circle>
            <circle id="Oval-Copy-16" fill="#FFFFFF" cx="592" cy="121" r="16"></circle>
            <circle id="Oval-Copy-18" fill="#FFFFFF" cx="740" cy="121" r="16"></circle>
            <circle id="Oval" fill="#1B46C2" cx="154" cy="121" r="8"></circle>
            <circle id="Oval-Copy-12" fill="#1B46C2" cx="300" cy="121" r="8"></circle>
            <circle id="Oval-Copy-15" fill="#1B46C2" cx="446" cy="121" r="8"></circle>
            <circle id="Oval-Copy-17" fill="#1B46C2" cx="592" cy="121" r="8"></circle>
            <circle id="Oval-Copy-19" fill="#1B46C2" cx="740" cy="121" r="8"></circle>
            <rect id="Rectangle" fill="#8097D8" x="227" y="200" width="1" height="40"></rect>
            <rect id="Rectangle-Copy-22" fill="#8097D8" x="79" y="0" width="1" height="40"></rect>
            <rect id="Rectangle-Copy-20" fill="#8097D8" x="521" y="200" width="1" height="40"></rect>
            <rect id="Rectangle-Copy-23" fill="#8097D8" x="372" y="0" width="1" height="40"></rect>
            <rect id="Rectangle-Copy-24" fill="#8097D8" x="666" y="0" width="1" height="40"></rect>
        </g>
    </g>
</svg>