<?xml version="1.0" encoding="UTF-8"?>
<svg width="39px" height="40px" viewBox="0 0 39 40" version="1.1" xmlns="http://www.w3.org/2000/svg" xmlns:xlink="http://www.w3.org/1999/xlink">
    <!-- Generator: Sketch 61 (89581) - https://sketch.com -->
    <title>272-network-4</title>
    <desc>Created with Sketch.</desc>
    <g id="Home-Revamp" stroke="none" stroke-width="1" fill="none" fill-rule="evenodd">
        <g id="LandingPage-Elrond-Revamp" transform="translate(-551.000000, -809.000000)" fill-rule="nonzero">
            <g id="Inline-menu" transform="translate(508.000000, 766.000000)">
                <g id="272-network-4" transform="translate(43.000000, 43.000000)">
                    <path d="M20.9818437,22.9454611 C21.1657109,22.9444766 21.3492969,22.9323828 21.5316875,22.9093203 C19.7475781,22.6373516 18.3636875,20.7075547 18.3636875,18.3636172 C18.3636875,16.0196797 19.7475781,14.0898828 21.5316875,13.8179141 C19.8415156,13.6130234 18.1770781,14.3624844 17.2102812,15.7639531 C16.2434141,17.1653516 16.1336562,18.9874297 16.9253047,20.4947891 C17.7169531,22.0021484 19.2792266,22.9459531 20.9818437,22.9454611 L20.9818437,22.9454611 Z" id="Path" fill="#FFFFFF"></path>
                    <g id="Group" transform="translate(17.679688, 0.632812)" fill="#A4C2F7">
                        <circle id="Oval" cx="17.3930078" cy="3.29449219" r="3.27269531"></circle>
                        <circle id="Oval" cx="3.30215625" cy="35.4398828" r="3.27269531"></circle>
                    </g>
                    <g id="Group" transform="translate(17.679688, 0.632812)" fill="#E3E7F2">
                        <ellipse id="Oval" cx="16.4112344" cy="3.02179688" rx="2.29092188" ry="3"></ellipse>
                        <ellipse id="Oval" cx="2.3203125" cy="35.4398828" rx="2.29092187" ry="3.27269531"></ellipse>
                    </g>
                    <circle id="Oval" fill="#A4C2F7" cx="3.92730469" cy="34.7636172" r="3.27269531"></circle>
                    <g id="Group" transform="translate(2.632812, 3.867188)" fill="#E3E7F2">
                        <circle id="Oval" cx="5.87626562" cy="2.02373438" r="1.96361719"></circle>
                        <ellipse id="Oval" cx="2.31264844" cy="28.8964297" rx="2.29092187" ry="3.27269531"></ellipse>
                    </g>
                    <g id="Group" transform="translate(2.632812, 2.632812)" fill="#FFFFFF">
                        <path d="M3.29449219,33.4035717 C3.48834375,33.4013203 3.68163281,33.3818437 3.87203906,33.3454219 C2.80040625,33.0716953 1.98541406,31.7405391 1.98541406,30.130875 C1.98541406,28.5212109 2.80033594,27.1900547 3.87203906,26.9163281 C2.65345313,26.6964609 1.41517969,27.1838672 0.673382813,28.1753437 C-0.0684140625,29.1668906 -0.186398437,30.4923516 0.368578125,31.5993516 C0.923554688,32.7063516 2.05614844,33.4046953 3.29449219,33.4035717 L3.29449219,33.4035717 Z" id="Path"></path>
                        <path d="M18.4260234,34.71265 C18.619875,34.7103984 18.8131641,34.6909219 19.0035703,34.6545 C17.9319375,34.3807734 17.1169453,33.0496172 17.1169453,31.4399531 C17.1169453,29.8302891 17.9318672,28.4991328 19.0035703,28.2254062 C17.7849844,28.0055391 16.5467109,28.4929453 15.8049141,29.4844219 C15.0631172,30.4759687 14.9451328,31.8014297 15.5001094,32.9084297 C16.0550859,34.0154297 17.18775,34.7138438 18.4260234,34.71265 L18.4260234,34.71265 Z" id="Path"></path>
                        <path d="M31.5169453,6.56718903 C31.7107969,6.5649375 31.9040859,6.54546094 32.0944922,6.50903906 C31.0227891,6.2353125 30.2078672,4.90415625 30.2078672,3.29449219 C30.2078672,1.68482813 31.0227891,0.353671875 32.0944922,0.0799453125 C30.8759062,-0.139921875 29.6376328,0.347484375 28.8958359,1.33896094 C28.1540391,2.33050781 28.0360547,3.65596875 28.5910312,4.76296875 C29.1459375,5.86989844 30.2786719,6.56838281 31.5169453,6.56718903 L31.5169453,6.56718903 Z" id="Path"></path>
                    </g>
                    <circle id="Oval" fill="#E3E7F2" cx="32.4545391" cy="29.8363828" r="1.96361719"></circle>
                    <g id="Group" fill="#1B46C2">
                        <path d="M35.0726953,7.85453906 C32.9036953,7.85453906 31.1453906,6.09623437 31.1453906,3.92723438 C31.1453906,1.75823438 32.9037656,0 35.0726953,0 C37.241625,0 39,1.75830469 39,3.92730469 C38.9976094,6.09525 37.2407109,7.85214844 35.0726953,7.85453906 L35.0726953,7.85453906 Z M35.0726953,1.30907813 C33.6267188,1.30907813 32.4545391,2.48125781 32.4545391,3.92723438 C32.4545391,5.37321094 33.6267188,6.54539063 35.0726953,6.54539063 C36.5186719,6.54539063 37.6908516,5.37321094 37.6908516,3.92723438 C37.689375,2.48196094 36.5180391,1.310625 35.0726953,1.30907813 Z" id="Shape"></path>
                        <path d="M20.9818437,40 C18.8128437,40 17.0545391,38.2416953 17.0545391,36.0726953 C17.0545391,33.9036953 18.8128437,32.1453906 20.9818437,32.1453906 C23.1508437,32.1453906 24.9091484,33.9036953 24.9091484,36.0726953 C24.9066875,38.2407109 23.1497891,39.9976094 20.9818437,40 L20.9818437,40 Z M20.9818437,33.4545391 C19.5358672,33.4545391 18.3636875,34.6267187 18.3636875,36.0726953 C18.3636875,37.5186719 19.5358672,38.6908516 20.9818437,38.6908516 C22.4278203,38.6908516 23.6,37.5186719 23.6,36.0726953 C23.5984531,34.6273516 22.4271875,33.4560859 20.9818437,33.4545391 Z" id="Shape"></path>
                        <path d="M3.92730469,38.6909219 C1.75830469,38.6909219 0,36.9326172 0,34.7636172 C0,32.5946172 1.75830469,30.8363125 3.92730469,30.8363125 C6.09630469,30.8363125 7.85460937,32.5946172 7.85460937,34.7636172 C7.85214844,36.9316328 6.09525,38.6885312 3.92730469,38.6909219 L3.92730469,38.6909219 Z M3.92730469,32.1454609 C2.48132812,32.1454609 1.30914844,33.3176406 1.30914844,34.7636172 C1.30914844,36.2095937 2.48132813,37.3817734 3.92730469,37.3817734 C5.37328125,37.3817734 6.54546094,36.2095937 6.54546094,34.7636172 C6.54391406,33.3182734 5.37264844,32.1470078 3.92730469,32.1454609 L3.92730469,32.1454609 Z" id="Shape"></path>
                        <path d="M8.50907812,8.50907813 C7.06310156,8.50907813 5.89092187,7.33689844 5.89092187,5.89092188 C5.89092187,4.44494531 7.06310156,3.27276563 8.50907812,3.27276563 C9.95505469,3.27276563 11.1272344,4.44494531 11.1272344,5.89092188 C11.1257578,7.33626563 9.95442187,8.50753125 8.50907812,8.50907813 Z M8.50907812,4.58184375 C7.78605469,4.58184375 7.2,5.16796875 7.2,5.89092188 C7.2,6.613875 7.786125,7.2 8.50907812,7.2 C9.23203125,7.2 9.81815625,6.613875 9.81815625,5.89092188 C9.81738281,5.16825 9.23175,4.58261719 8.50907812,4.58184375 Z" id="Shape"></path>
                        <path d="M32.4545391,32.4545391 C31.0085625,32.4545391 29.8363828,31.2823594 29.8363828,29.8363828 C29.8363828,28.3904063 31.0085625,27.2182266 32.4545391,27.2182266 C33.9005156,27.2182266 35.0726953,28.3904063 35.0726953,29.8363828 C35.0712188,31.2817266 33.8998828,32.4529922 32.4545391,32.4545391 L32.4545391,32.4545391 Z M32.4545391,28.5273047 C31.7315156,28.5273047 31.1454609,29.1134297 31.1454609,29.8363828 C31.1454609,30.5594063 31.7315859,31.1454609 32.4545391,31.1454609 C33.1774922,31.1454609 33.7636172,30.5593359 33.7636172,29.8363828 C33.7628438,29.1137109 33.1772109,28.5280781 32.4545391,28.5273047 L32.4545391,28.5273047 Z" id="Shape"></path>
                        <path d="M20.9818437,33.4545391 C20.8082422,33.4545391 20.6417422,33.3856328 20.5189766,33.2628672 C20.3962109,33.1401016 20.3272344,32.9736016 20.3273046,32.8 L20.3273046,24.9454609 C20.3273046,24.5839844 20.6203672,24.2909219 20.9818437,24.2909219 C21.3433203,24.2909219 21.6363829,24.5839844 21.6363829,24.9454609 L21.6363829,32.8 C21.6364531,32.9736016 21.5674766,33.1401016 21.4447109,33.2628672 C21.3219453,33.3856328 21.1554453,33.4545391 20.9818437,33.4545391 L20.9818437,33.4545391 Z" id="Path"></path>
                        <path d="M25.2545391,14.7454614 C24.9898125,14.7454614 24.7512422,14.5859219 24.6499219,14.341375 C24.5486016,14.0968281 24.6046406,13.8153672 24.7917422,13.628125 L31.9917422,6.428125 C32.1565547,6.26028906 32.3987813,6.19384375 32.6261719,6.25403125 C32.8535625,6.31421875 33.0311719,6.49182812 33.0913594,6.71921875 C33.1515469,6.94660937 33.0851016,7.18883594 32.9172656,7.35364844 L25.7172656,14.5536484 C25.5947109,14.676625 25.4281406,14.7456719 25.2545391,14.7454614 L25.2545391,14.7454614 Z" id="Path"></path>
                        <path d="M6.54546094,33.4545395 C6.28073438,33.4545395 6.04216406,33.295 5.94084375,33.0504531 C5.83952344,32.8059063 5.8955625,32.5244453 6.08266406,32.3372031 L15.2462813,23.1735859 C15.5025,22.9219375 15.9136875,22.9238359 16.1676563,23.1777344 C16.421625,23.4317031 16.4234531,23.8428203 16.1718047,24.0991094 L7.0081875,33.2627969 C6.88563281,33.3857031 6.7190625,33.45475 6.54546094,33.4545395 L6.54546094,33.4545395 Z" id="Path"></path>
                        <path d="M15.7090781,13.7454614 C15.5354766,13.7456719 15.3689062,13.676625 15.2462812,13.5536484 L9.35535937,7.66272656 C9.10371094,7.40650781 9.10560937,6.99532031 9.35950781,6.74135156 C9.61347656,6.48738281 10.0245937,6.48555469 10.2808828,6.73720313 L16.171875,12.628125 C16.3590469,12.8152969 16.4150156,13.0968281 16.3136953,13.341375 C16.212375,13.5859219 15.9738047,13.7454614 15.7090781,13.7454614 Z" id="Path"></path>
                        <path d="M31.1454609,29.1818442 C30.9718594,29.1820547 30.8052891,29.1130078 30.6826641,28.9900313 L24.7917422,23.0991094 C24.5400938,22.8428906 24.5419922,22.4317031 24.7958906,22.1777344 C25.0498594,21.9237656 25.4609766,21.9219375 25.7172656,22.1735859 L31.6081875,28.0645078 C31.7953594,28.2516797 31.8513281,28.5332109 31.7500078,28.7777578 C31.6487578,29.0223047 31.4101172,29.1818442 31.1454609,29.1818442 Z" id="Path"></path>
                    </g>
                    <path d="M20.9995986,11.75 C16.9956993,11.7502169 13.75,14.99605 13.75,19 C13.75,23.0040838 16.9959162,26.25 21,26.25 C25.0040838,26.25 28.25,23.0040838 28.2500005,19.0008513 C28.245457,14.998198 25.0019331,11.7545002 20.9995986,11.75 Z" id="Path" stroke="#1B46C2" stroke-width="1.5" fill="#1B46C2"></path>
                </g>
            </g>
        </g>
    </g>
</svg>