<svg xmlns="http://www.w3.org/2000/svg" viewBox="0 0 36 12" fill="none" id="visa">
  <defs>
    <linearGradient id="visa-gradient" x1="0.0626216" y1="3.59738" x2="10.2179" y2="-10.705" gradientUnits="userSpaceOnUse">
    <stop stop-color="#222357"></stop>
    <stop offset="1" stop-color="#254AA5"></stop>
    </linearGradient>
  </defs>
  <g mask="url(#visa_mask0)">
    <path fill-rule="evenodd" clip-rule="evenodd" d="M18.581 3.73915C18.5605 5.36833 20.0213 6.27754 21.1217 6.81806C22.2524 7.37272 22.6321 7.72835 22.6278 8.22428C22.6192 8.98341 21.7259 9.31838 20.8898 9.33143C19.4312 9.35427 18.5832 8.93447 17.9089 8.6169L17.3835 11.0955C18.0599 11.4098 19.3125 11.6838 20.6114 11.6958C23.6603 11.6958 25.655 10.1786 25.6658 7.82623C25.6777 4.84086 21.5694 4.67555 21.5975 3.34111C21.6072 2.93653 21.9902 2.50477 22.8295 2.39492C23.2449 2.33946 24.3917 2.29704 25.6917 2.90064L26.202 0.502553C25.5029 0.245887 24.6042 9.72748e-05 23.4855 9.72748e-05C20.6157 9.72748e-05 18.5972 1.53792 18.581 3.73915ZM31.1054 0.206736C30.5487 0.206736 30.0794 0.534093 29.8701 1.03655L25.5148 11.5196H28.5615L29.1678 9.83062H32.8909L33.2426 11.5196H35.9279L33.5846 0.206736H31.1054ZM31.5315 3.2628L32.4108 7.51084H30.0028L31.5315 3.2628ZM14.887 0.206736L12.4855 11.5196H15.3887L17.7892 0.206736H14.887ZM10.5921 0.206736L7.57029 7.90671L6.34795 1.35956C6.20447 0.628712 5.63807 0.206736 5.0091 0.206736H0.0690464L0 0.535181C1.01412 0.757045 2.16633 1.11485 2.86435 1.49768C3.29157 1.7315 3.41348 1.93597 3.55373 2.49172L5.86894 11.5196H8.93719L13.641 0.206736H10.5921Z" fill="url(#visa-gradient)"></path>
  </g>
</svg>
