<?xml version="1.0" encoding="UTF-8"?>
<svg width="35px" height="34px" viewBox="0 0 35 34" version="1.1" xmlns="http://www.w3.org/2000/svg" xmlns:xlink="http://www.w3.org/1999/xlink">
    <!-- Generator: Sketch 61 (89581) - https://sketch.com -->
    <title>profits</title>
    <desc>Created with Sketch.</desc>
    <defs>
        <linearGradient x1="41.1153707%" y1="0%" x2="150.173141%" y2="82.1935021%" id="linearGradient-1">
            <stop stop-color="#E3E7F2" offset="0.0580658784%"></stop>
            <stop stop-color="#D0D8EE" offset="100%"></stop>
        </linearGradient>
        <linearGradient x1="39.9186106%" y1="0%" x2="163.66647%" y2="82.1935021%" id="linearGradient-2">
            <stop stop-color="#E3E7F2" offset="0.0580658784%"></stop>
            <stop stop-color="#D0D8EE" offset="100%"></stop>
        </linearGradient>
        <linearGradient x1="38.6744156%" y1="0%" x2="177.69462%" y2="82.1935021%" id="linearGradient-3">
            <stop stop-color="#E3E7F2" offset="0.0580658784%"></stop>
            <stop stop-color="#D0D8EE" offset="100%"></stop>
        </linearGradient>
    </defs>
    <g id="Home-Revamp" stroke="none" stroke-width="1" fill="none" fill-rule="evenodd">
        <g id="LandingPage-Elrond-Revamp" transform="translate(-702.000000, -6210.000000)" fill-rule="nonzero">
            <g id="A-Token-to-Fuel-the-Elrond-Economy" transform="translate(165.000000, 6007.000000)">
                <g id="Volume" transform="translate(515.000000, 180.000000)">
                    <g id="profits" transform="translate(22.000000, 23.000000)">
                        <g id="Group" transform="translate(2.953125, 18.562500)">
                            <rect id="Rectangle" fill="url(#linearGradient-1)" x="0.0468984375" y="5.46096094" width="2.39997656" height="8.40002344"></rect>
                            <rect id="Rectangle" fill="url(#linearGradient-2)" x="7.24689844" y="0.0609609375" width="4.19997656" height="13.8000234"></rect>
                        </g>
                        <polygon id="Path" fill="url(#linearGradient-3)" points="23.4 13.8235078 19.2000234 13.8235078 19.2000234 32.4234844 23.4 32.4234844 25.2 32.4234844 25.2 13.8235078"></polygon>
                        <g id="Group" transform="translate(5.343750, 18.562500)" fill="#A4C2F7">
                            <rect id="Rectangle" x="9.05625" y="0.0609609375" width="1.8" height="13.8000234"></rect>
                            <rect id="Rectangle" x="0.05625" y="5.46096094" width="1.8" height="8.40002344"></rect>
                        </g>
                        <rect id="Rectangle" fill="#FFFFFF" x="1.20002344" y="24.0234609" width="1.8" height="8.40002344"></rect>
                        <rect id="Rectangle" fill="#1B46C2" x="28.2000234" y="9.02348438" width="6" height="23.4"></rect>
                        <g id="Group" fill="#1B46C2">
                            <path d="M7.79997656,33.0234609 L0.599976562,33.0234609 L0.599976562,23.4234844 L7.79997656,23.4234844 L7.79997656,33.0234609 Z M1.8,31.8235078 L6.60002344,31.8235078 L6.60002344,24.6235078 L1.8,24.6235078 L1.8,31.8235078 Z" id="Shape"></path>
                            <path d="M16.7999766,33.0234609 L9.59997656,33.0234609 L9.59997656,18.0234844 L16.7999766,18.0234844 L16.7999766,33.0234609 Z M10.8,31.8235078 L15.6000234,31.8235078 L15.6000234,19.2235078 L10.8,19.2235078 L10.8,31.8235078 Z" id="Shape"></path>
                            <path d="M25.7999766,33.0234609 L18.5999766,33.0234609 L18.5999766,13.2234609 L25.7999766,13.2234609 L25.7999766,33.0234609 Z M19.8,31.8235078 L24.6000234,31.8235078 L24.6000234,14.4234844 L19.8,14.4234844 L19.8,31.8235078 Z" id="Shape"></path>
                            <path d="M27.5999766,33.0234609 L27.5999766,8.42350781 L34.7999766,8.42350781 L34.7999766,12.0235078 C34.7999766,12.3548906 34.5313828,12.6234844 34.2,12.6234844 C33.8686172,12.6234844 33.6000234,12.3548203 33.6000234,12.0235078 L33.6000234,9.62353125 L28.8,9.62353125 L28.8,31.8235078 L33.6000234,31.8235078 L33.6000234,11.1687012 C33.6000234,10.8373184 33.8686172,10.5687246 34.2,10.5687246 C34.5313828,10.5687246 34.7999766,10.8373887 34.7999766,11.1687012 L34.7999766,33.0234609 L27.5999766,33.0234609 Z" id="Path"></path>
                            <path d="M4.81788281,15.2215318 C4.546125,15.2218828 4.30804688,15.0395625 4.23759375,14.7770859 C4.16714063,14.5146094 4.28189063,14.2375781 4.51729688,14.1018047 L27.9,0.601804688 C28.0856953,0.494507813 28.3145625,0.4944375 28.5002578,0.601664063 C28.6859531,0.708890625 28.8003516,0.907101563 28.8003516,1.12155469 C28.8003516,1.33600781 28.6858125,1.53414844 28.4999766,1.64130469 L5.11727344,15.1413047 C5.02628906,15.1938984 4.923,15.2215318 4.81788281,15.2215318 Z" id="Path"></path>
                            <path d="M28.2005859,1.72153125 C28.18125,1.72153125 28.1619141,1.72033594 28.1420156,1.71857813 L23.0048437,1.22055469 C22.7910234,1.20044531 22.6042734,1.06755469 22.5151875,0.87215625 C22.4261016,0.676757813 22.44825,0.448664063 22.5732656,0.274007813 C22.6982813,0.0993515625 22.9071094,0.0049921875 23.1207891,0.0263671875 L28.2579609,0.524390625 C28.5763359,0.555398438 28.8144141,0.830742188 28.7991563,1.15024219 C28.7838281,1.46988281 28.5205078,1.72117969 28.2005859,1.72153125 L28.2005859,1.72153125 Z" id="Path"></path>
                            <path d="M26.0625234,6.41960236 C25.9768828,6.41974219 25.8922266,6.40139062 25.8143906,6.36567188 C25.6694766,6.29985937 25.5566953,6.17913281 25.5008672,6.03014062 C25.4450391,5.88107812 25.4507344,5.71598437 25.5167578,5.57114062 L27.6539063,0.873070313 C27.7424297,0.677601563 27.9286172,0.544289062 28.1422266,0.52340625 C28.3558359,0.50259375 28.5642422,0.597375 28.6889063,0.772101563 C28.8135703,0.946828125 28.8353672,1.17478125 28.7461406,1.36989844 L26.6089219,6.06796875 C26.5114688,6.28221094 26.2977891,6.41967188 26.0625234,6.41960236 Z" id="Path"></path>
                        </g>
                    </g>
                </g>
            </g>
        </g>
    </g>
</svg>