<?xml version="1.0" encoding="UTF-8"?>
<svg width="37px" height="30px" viewBox="0 0 37 30" version="1.1" xmlns="http://www.w3.org/2000/svg" xmlns:xlink="http://www.w3.org/1999/xlink">
    <!-- Generator: Sketch 61 (89581) - https://sketch.com -->
    <title>wallet</title>
    <desc>Created with Sketch.</desc>
    <defs>
        <linearGradient x1="13.1147161%" y1="33.1495388%" x2="100%" y2="70.2479339%" id="linearGradient-1">
            <stop stop-color="#E3E7F2" offset="0.0580658784%"></stop>
            <stop stop-color="#D0D8EE" offset="100%"></stop>
        </linearGradient>
        <linearGradient x1="13.1651668%" y1="46.2598585%" x2="100%" y2="54.5%" id="linearGradient-2">
            <stop stop-color="#E3E7F2" offset="0.0580658784%"></stop>
            <stop stop-color="#D0D8EE" offset="100%"></stop>
        </linearGradient>
        <linearGradient x1="13.1147161%" y1="48.7256839%" x2="100%" y2="51.53125%" id="linearGradient-3">
            <stop stop-color="#E3E7F2" offset="0.0580658784%"></stop>
            <stop stop-color="#D0D8EE" offset="100%"></stop>
        </linearGradient>
    </defs>
    <g id="Home-Revamp" stroke="none" stroke-width="1" fill="none" fill-rule="evenodd">
        <g id="LandingPage-Elrond-Revamp" transform="translate(-954.000000, -6212.000000)">
            <g id="A-Token-to-Fuel-the-Elrond-Economy" transform="translate(165.000000, 6007.000000)">
                <g id="Wallets" transform="translate(764.000000, 180.000000)">
                    <g id="wallet" transform="translate(25.000000, 25.000000)">
                        <path d="M36.4,10.2 L36.4,26.4 C36.4,27.0375 36.146875,27.646875 35.696875,28.096875 C35.246875,28.546875 34.6375,28.8 34,28.8 L4,28.8 C3.3625,28.8 2.753125,28.546875 2.303125,28.096875 C1.853125,27.646875 1.6,27.0375 1.6,26.4 L1.6,6 C1.6023436,6.99375 2.40625,7.7976564 3.4,7.8 L34,7.8 C34.6375,7.8 35.246875,8.053125 35.696875,8.503125 C36.146875,8.953125 36.4,9.5625 36.4,10.2 Z" id="Path" fill="#A4C2F7" fill-rule="nonzero"></path>
                        <path d="M34.6,10.2 L34.6,26.4 C34.6,27.0375 34.346875,27.646875 33.896875,28.096875 C33.446875,28.546875 32.8375,28.8 32.2,28.8 L4,28.8 C3.3625,28.8 2.753125,28.546875 2.303125,28.096875 C1.853125,27.646875 1.6,27.0375 1.6,26.4 L1.6,7.8 L32.2,7.8 C32.8375,7.8 33.446875,8.053125 33.896875,8.503125 C34.346875,8.953125 34.6,9.5625 34.6,10.2 Z" id="Path" fill="url(#linearGradient-1)" fill-rule="nonzero"></path>
                        <path d="M31,1.8 L31,7.8 L5.2,7.8 L5.2,1.8 C5.2023436,1.1390628 5.7390628,0.6023436 6.4,0.6 L29.8,0.6 C30.4609372,0.6023436 30.9976564,1.1390628 31,1.8 Z" id="Path" fill="#7FACFA" fill-rule="nonzero"></path>
                        <path d="M29.2,1.8 L29.2,7.8 L5.2,7.8 L5.2,1.8 C5.2023436,1.1390628 5.7390628,0.6023436 6.4,0.6 L28,0.6 C28.6609372,0.6023436 29.1976564,1.1390628 29.2,1.8 Z" id="Path" fill="url(#linearGradient-2)" fill-rule="nonzero"></path>
                        <path d="M33.4,4.8 L33.4,7.8 L7.6,7.8 L7.6,4.8 C7.6023436,4.1390628 8.1390628,3.6023436 8.8,3.6 L32.2,3.6 C32.8609372,3.6023436 33.3976564,4.1390628 33.4,4.8 Z" id="Path" fill="#CAD9FC" fill-rule="nonzero"></path>
                        <path d="M31.6,4.8 L31.6,7.8 L7.6,7.8 L7.6,4.8 C7.6023436,4.1390628 8.1390628,3.6023436 8.8,3.6 L30.4,3.6 C31.0609372,3.6023436 31.5976564,4.1390628 31.6,4.8 Z" id="Path" fill="url(#linearGradient-3)" fill-rule="nonzero"></path>
                        <path d="M36.4,15 L36.4,21.6 L30.4,21.6 C29.921875,21.6 29.4648436,21.4101564 29.1273436,21.0726564 C28.7898436,20.7351564 28.6,20.278125 28.6,19.8 L28.6,16.8 C28.6,16.321875 28.7898436,15.8648436 29.1273436,15.5273436 C29.4648436,15.1898436 29.921875,15 30.4,15 L36.4,15 Z" id="Path" fill="#1B46C2" fill-rule="nonzero"></path>
                        <path d="M34.6,15 L34.6,21.6 L30.4,21.6 C29.921875,21.6 29.4648436,21.4101564 29.1273436,21.0726564 C28.7898436,20.7351564 28.6,20.278125 28.6,19.8 L28.6,16.8 C28.6,16.321875 28.7898436,15.8648436 29.1273436,15.5273436 C29.4648436,15.1898436 29.921875,15 30.4,15 L34.6,15 Z" id="Path" fill="#1B46C2" fill-rule="nonzero"></path>
                        <ellipse id="Oval" fill="#FFFFFF" cx="32.5" cy="18.5" rx="2" ry="1.5"></ellipse>
                        <path d="M7,1.8 C7.0023436,1.1390628 7.5390628,0.6023436 8.2,0.6 L6.4,0.6 C5.7390628,0.6023436 5.2023436,1.1390628 5.2,1.8 L5.2,4.2 L7,4.2 L7,1.8 Z" id="Path" fill="#FFFFFF" fill-rule="nonzero"></path>
                        <path d="M3.4,26.4 L3.4,6 C3.4023436,5.00625 4.20625,4.2023436 5.2,4.2 L3.4,4.2 C2.40625,4.2023436 1.6023436,5.00625 1.6,6 L1.6,26.4 C1.6,27.0375 1.853125,27.646875 2.303125,28.096875 C2.753125,28.546875 3.3625,28.8 4,28.8 L5.8,28.8 C5.1625,28.8 4.553125,28.546875 4.103125,28.096875 C3.653125,27.646875 3.4,27.0375 3.4,26.4 Z" id="Path" fill="#FFFFFF" fill-rule="nonzero"></path>
                        <path d="M5.2,4.8 L3.4,4.8 C3.0695314,4.8 2.8,4.5304686 2.8,4.2 C2.8,3.8695314 3.0695314,3.6 3.4,3.6 L5.2,3.6 C5.5304686,3.6 5.8,3.8695314 5.8,4.2 C5.8,4.5304686 5.5304686,4.8 5.2,4.8 Z" id="Path" fill="#428DFF" fill-rule="nonzero"></path>
                        <polygon id="Path" fill="#FFFFFF" fill-rule="nonzero" points="2.2 7.8 2.2 25.2 1 25.2 1 7.8"></polygon>
                        <path d="M1.6,10.8 C1.9304686,10.7976564 2.1976564,10.5304686 2.2,10.2 L2.2,7.8 L1,7.8 L1,10.2 C1.00234375,10.5304686 1.2695314,10.7976564 1.6,10.8 Z" id="Path" fill="#428DFF" fill-rule="nonzero"></path>
                        <path d="M1,25.2 L2.2,25.2 L2.2,15 C2.2,14.6695314 1.9304686,14.4 1.6,14.4 C1.2695314,14.4 1,14.6695314 1,15 L1,25.2 Z" id="Path" fill="#428DFF" fill-rule="nonzero"></path>
                        <path d="M2.2,12.6 C2.1976564,12.440625 2.134375,12.2882814 2.0265628,12.1734372 L1.9351564,12.103125 C1.9023436,12.0796872 1.8671872,12.0609372 1.8273436,12.046875 C1.7945314,12.0304686 1.7570314,12.01875 1.7195314,12.0117186 C1.6796872,12.0046872 1.6398436,12.0023436 1.6,12 C1.440625,12.0023436 1.2882814,12.0632814 1.1734372,12.1734372 C0.9484375,12.4125 0.9484375,12.7875 1.1734372,13.0265628 C1.2320314,13.0804686 1.2976564,13.1226564 1.3726564,13.153125 C1.4429686,13.1835936 1.5203128,13.1976564 1.6,13.2 C1.759375,13.1976564 1.9117186,13.134375 2.0265628,13.0265628 C2.134375,12.9117186 2.1976564,12.759375 2.2,12.6 L2.2,12.6 Z" id="Path" fill="#428DFF" fill-rule="nonzero"></path>
                        <polygon id="Path" fill="#FFFFFF" fill-rule="nonzero" points="1 25.2 1 7.8 2.2 7.8 2.2 25.2"></polygon>
                        <g id="Group" fill-rule="nonzero">
                            <path d="M1.6,22.2 C1.2695314,22.2023436 1.00234375,22.4695314 1,22.8 L1,25.2 L2.2,25.2 L2.2,22.8 C2.1976564,22.4695314 1.9304686,22.2023436 1.6,22.2 Z" id="Path" fill="#1B46C2"></path>
                            <path d="M2.5,7.8 L0.5,7.8 L0.5,26.078481 C0.5,26.47588 0.949219,26.8 1.5,26.8 C2.050781,26.8 2.5,26.47588 2.5,26.078481 L2.5,7.8 Z" id="Path" fill="#1B46C2"></path>
                            <path d="M34,29.4 L4,29.4 C2.3429686,29.3976564 1.00234375,28.0570314 1,26.4 L1,25.2 C1,24.8695314 1.2695314,24.6 1.6,24.6 C1.9304686,24.6 2.2,24.8695314 2.2,25.2 L2.2,26.4 C2.2023436,27.39375 3.00625,28.1976564 4,28.2 L34,28.2 C34.99375,28.1976564 35.7976564,27.39375 35.8,26.4 L35.8,10.2 C35.7976564,9.20625 34.99375,8.4023436 34,8.4 L3.4,8.4 C3.0695314,8.4 2.8,8.1304686 2.8,7.8 C2.8,7.4695314 3.0695314,7.2 3.4,7.2 L34,7.2 C35.6570314,7.2023436 36.9976564,8.5429686 37,10.2 L37,26.4 C36.9976564,28.0570314 35.6570314,29.3976564 34,29.4 Z" id="Path" fill="#1B46C2"></path>
                            <path d="M33.4,8.4 C33.0695314,8.4 32.8,8.1304686 32.8,7.8 L32.8,6.6 C32.8,6.2695314 33.0695314,6 33.4,6 C33.7304686,6 34,6.2695314 34,6.6 L34,7.8 C34,8.1304686 33.7304686,8.4 33.4,8.4 Z" id="Path" fill="#428DFF"></path>
                            <path d="M5.2,4.8 L3.4,4.8 C3.0695314,4.8 2.8,4.5304686 2.8,4.2 C2.8,3.8695314 3.0695314,3.6 3.4,3.6 L5.2,3.6 C5.5304686,3.6 5.8,3.8695314 5.8,4.2 C5.8,4.5304686 5.5304686,4.8 5.2,4.8 Z" id="Path" fill="#428DFF"></path>
                            <path d="M1.6,8.4 C1.2695314,8.4 1,8.1304686 1,7.8 L1,6 C1,5.6695314 1.2695314,5.4 1.6,5.4 C1.9304686,5.4 2.2,5.6695314 2.2,6 L2.2,7.8 C2.2,8.1304686 1.9304686,8.4 1.6,8.4 Z" id="Path" fill="#1B46C2"></path>
                            <path d="M10.6,8.4 L3.4,8.4 C2.0734372,8.4 1,7.3265628 1,6 C1,4.6734372 2.0734372,3.6 3.4,3.6 L5.2,3.6 C5.5304686,3.6 5.8,3.8695314 5.8,4.2 C5.8,4.5304686 5.5304686,4.8 5.2,4.8 L3.4,4.8 C2.7367186,4.8 2.2,5.3367186 2.2,6 C2.2,6.6632814 2.7367186,7.2 3.4,7.2 L10.6,7.2 C10.9304686,7.2 11.2,7.4695314 11.2,7.8 C11.2,8.1304686 10.9304686,8.4 10.6,8.4 Z" id="Path" fill="#1B46C2"></path>
                            <path d="M31,8.4 L5.2,8.4 C4.8695314,8.4 4.6,8.1304686 4.6,7.8 L4.6,1.8 C4.6023436,0.80625 5.40625,0.00234375 6.4,0 L29.8,0 C30.79375,0.00234375 31.5976564,0.80625 31.6,1.8 L31.6,3.6 C31.6,3.9304686 31.3304686,4.2 31,4.2 C30.6695314,4.2 30.4,3.9304686 30.4,3.6 L30.4,1.8 C30.4,1.4695314 30.1304686,1.2 29.8,1.2 L6.4,1.2 C6.0695314,1.2 5.8,1.4695314 5.8,1.8 L5.8,7.2 L31,7.2 C31.3304686,7.2 31.6,7.4695314 31.6,7.8 C31.6,8.1304686 31.3304686,8.4 31,8.4 Z" id="Path" fill="#1B46C2"></path>
                            <path d="M33.4,8.4 C33.0695314,8.4 32.8,8.1304686 32.8,7.8 L32.8,4.8 C32.8,4.4695314 32.5304686,4.2 32.2,4.2 L8.8,4.2 C8.4695314,4.2 8.2,4.4695314 8.2,4.8 L8.2,7.8 C8.2,8.1304686 7.9304686,8.4 7.6,8.4 C7.2695314,8.4 7,8.1304686 7,7.8 L7,4.8 C7.0023436,3.80625 7.80625,3.0023436 8.8,3 L32.2,3 C33.19375,3.0023436 33.9976564,3.80625 34,4.8 L34,7.8 C34,8.1304686 33.7304686,8.4 33.4,8.4 Z" id="Path" fill="#1B46C2"></path>
                            <path d="M36.4,22.2 L30.4,22.2 C29.0757814,22.1976564 28.0023436,21.1242186 28,19.8 L28,16.8 C28.0023436,15.4757814 29.0757814,14.4023436 30.4,14.4 L36.4,14.4 C36.7304686,14.4 37,14.6695314 37,15 L37,21.6 C37,21.9304686 36.7304686,22.2 36.4,22.2 Z M30.4,15.6 C29.7367186,15.6 29.2,16.1367186 29.2,16.8 L29.2,19.8 C29.2,20.4632814 29.7367186,21 30.4,21 L35.8,21 L35.8,15.6 L30.4,15.6 Z" id="Shape" fill="#1B46C2"></path>
                        </g>
                    </g>
                </g>
            </g>
        </g>
    </g>
</svg>