<?xml version="1.0" encoding="utf-8"?>
<!-- Generator: Adobe Illustrator 24.3.0, SVG Export Plug-In . SVG Version: 6.00 Build 0)  -->
<svg version="1.1"
	 id="svg8" inkscape:version="0.92.4 (5da689c313, 2019-01-14)" sodipodi:docname="A.svg" xmlns:cc="http://creativecommons.org/ns#" xmlns:dc="http://purl.org/dc/elements/1.1/" xmlns:inkscape="http://www.inkscape.org/namespaces/inkscape" xmlns:rdf="http://www.w3.org/1999/02/22-rdf-syntax-ns#" xmlns:sodipodi="http://sodipodi.sourceforge.net/DTD/sodipodi-0.dtd" xmlns:svg="http://www.w3.org/2000/svg"
	 xmlns="http://www.w3.org/2000/svg" xmlns:xlink="http://www.w3.org/1999/xlink" x="0px" y="0px"
	 viewBox="173.083 48 1347.748 181.324" enable-background="new 173.083 48 1347.748 181.324" xml:space="preserve">
<sodipodi:namedview  bordercolor="#666666" borderopacity="1.0" fit-margin-bottom="0" fit-margin-left="0" fit-margin-right="0" fit-margin-top="0" id="base" inkscape:current-layer="layer1" inkscape:cx="1386.2882" inkscape:cy="-440.96428" inkscape:document-units="px" inkscape:pageopacity="0.0" inkscape:pageshadow="2" inkscape:window-height="1017" inkscape:window-maximized="1" inkscape:window-width="1920" inkscape:window-x="1912" inkscape:window-y="-8" inkscape:zoom="0.35" pagecolor="#ffffff" showgrid="false" units="px">
	</sodipodi:namedview>
<g>
	<g id="layer1" transform="translate(260.95542,41.213839)" inkscape:groupmode="layer" inkscape:label="Layer 1">
		<path id="path1139" inkscape:connector-curvature="0" sodipodi:nodetypes="ccccccccc" fill="#FFFFFF" d="M-87.873,50.927h38.898
			l22.651,57.949l22.944-57.949h37.875l-57.03,137.184H-60.65l15.611-36.352L-87.873,50.927z"/>
		<path id="path1141" inkscape:connector-curvature="0" fill="#FFFFFF" d="M73.95,48.62c-29.227,0-47.703,26.212-47.703,52.314
			c0,29.373,20.257,52.66,47.148,52.66c20.06,0,27.623-12.221,27.623-12.221v9.52h33.927V50.928h-33.927v9.088
			C101.019,60.016,92.58,48.62,73.95,48.62z M81.166,80.746c13.485,0,20.445,10.67,20.445,20.298
			c0,10.368-7.456,20.543-20.445,20.543c-10.765,0-20.493-8.798-20.493-20.102C60.674,90.022,68.498,80.746,81.166,80.746z"/>
		<path id="path1145" inkscape:connector-curvature="0" sodipodi:nodetypes="ccccccccccccc" fill="#FFFFFF" d="M146.631,150.894
			V6.786h35.486v53.576c0,0,8.428-11.729,26.081-11.729c21.593,0,34.245,16.089,34.245,39.079v63.182h-35.227V96.366
			c0-7.78-3.707-15.296-12.101-15.296c-8.545,0-12.999,7.63-12.999,15.296v54.527H146.631z"/>
		<path id="path1147" inkscape:connector-curvature="0" fill="#FFFFFF" d="M302.945,48.632c-33.471,0-53.399,25.45-53.399,52.718
			c0,31.03,24.13,52.244,53.526,52.244c28.491,0,53.423-20.251,53.423-51.725C356.495,67.434,330.392,48.632,302.945,48.632z
			 M303.265,81.04c11.823,0,20.003,9.847,20.003,20.348c0,8.956-7.623,20.004-20.003,20.004c-11.344,0-19.857-9.101-19.857-20.102
			C283.407,90.692,290.485,81.04,303.265,81.04z"/>
		<path id="path1153" inkscape:connector-curvature="0" fill="#FFFFFF" d="M415.612,48.632c-33.47,0-53.398,25.45-53.398,52.718
			c0,31.03,24.13,52.244,53.526,52.244c28.491,0,53.423-20.251,53.423-51.725C469.163,67.434,443.059,48.632,415.612,48.632z
			 M415.933,81.04c11.822,0,20.003,9.847,20.003,20.348c0,8.956-7.623,20.004-20.003,20.004c-11.345,0-19.857-9.101-19.857-20.102
			C396.075,90.692,403.152,81.04,415.933,81.04z"/>
		<path id="path1155" fill="#FFFFFF" d="M497.164,105.888c13.014,0,23.564,10.55,23.564,23.564c0,13.014-10.55,23.564-23.564,23.564
			c-13.015,0-23.564-10.55-23.564-23.564C473.6,116.438,484.149,105.888,497.164,105.888z"/>
		<path id="path1157" inkscape:connector-curvature="0" sodipodi:nodetypes="ccccc" fill="#FFFFFF" d="M528.471,97.232H486.05
			l37.649-90.446h42.263L528.471,97.232z"/>
	</g>
	<g>
		<path fill="#FFFFFF" d="M1161.781,104.427c0-2.103,0.087-4.21-0.024-6.307c-0.113-2.136,0.504-3.143,2.903-3.118
			c9.863,0.104,19.729,0.082,29.593,0.007c1.862-0.014,2.541,0.685,2.522,2.452c-0.038,3.577-0.006,7.154-0.006,10.731
			c0,26.666,0.001,53.333-0.001,79.999c0,4.232-0.009,4.227-4.276,4.225c-8.889-0.003-17.782-0.164-26.664,0.082
			c-3.421,0.095-4.465-1.058-4.083-4.265c0.206-1.73,0.037-3.505,0.037-5.845c-3.443,2.661-5.966,5.066-8.888,6.797
			c-18.17,10.764-41.614,5.953-54.309-11.07c-8.6-11.531-11.771-24.568-10.826-38.83c0.824-12.433,4.927-23.516,13.277-32.755
			c7.715-8.536,17.375-13.377,29.079-13.78c9.604-0.331,18.518,1.551,26.164,7.73c1.58,1.277,3.007,2.743,4.504,4.121
			C1161.114,104.543,1161.447,104.485,1161.781,104.427z M1122.633,143.549c-0.034,10.839,9.082,20.279,20.054,20.072
			c12.534-0.236,20.119-10.662,20.211-19.7c0.095-9.328-7.642-19.792-20.166-20.076
			C1131.92,123.599,1122.666,132.975,1122.633,143.549z"/>
		<path fill="#FFFFFF" d="M1314.549,192.43c-11.203,0-22.036-0.042-32.869,0.029c-2.71,0.018-2.207-1.811-2.209-3.346
			c-0.021-16.593,0.043-33.187-0.075-49.78c-0.018-2.544-0.427-5.253-1.382-7.589c-2.233-5.467-6.527-7.592-12.899-6.967
			c-5.216,0.512-9.29,4.086-10.531,9.577c-0.545,2.409-0.825,4.928-0.837,7.399c-0.073,15.617-0.092,31.235,0.012,46.852
			c0.019,2.821-0.521,3.983-3.74,3.898c-9.429-0.248-18.869-0.085-28.304-0.094c-0.946-0.001-1.892-0.08-2.986-0.129
			c0-32.446,0-64.693,0-97.23c8.523,0,16.845,0,25.168,0c2.386,0,4.78,0.115,7.156-0.04c2.023-0.133,2.735,0.665,2.672,2.605
			c-0.083,2.52-0.02,5.044-0.02,7.567c0.323,0.096,0.646,0.192,0.969,0.289c0.605-0.657,1.25-1.282,1.808-1.977
			c8.398-10.451,19.781-12.327,32.005-10.398c11.805,1.862,19.776,9.093,23.615,20.325c1.548,4.531,2.444,9.501,2.505,14.286
			c0.266,20.711,0.114,41.428,0.106,62.143C1314.712,190.588,1314.621,191.325,1314.549,192.43z"/>
		<path fill="#FFFFFF" d="M975.629,95.046c10.902,0,21.528,0.061,32.152-0.049c2.261-0.023,2.833,0.896,2.769,2.881
			c-0.076,2.371-0.018,4.746-0.018,8.02c1.189-0.983,1.865-1.368,2.308-1.936c8.609-11.034,20.393-12.997,33.073-10.719
			c12.915,2.321,20.589,10.905,23.979,23.302c0.989,3.615,1.468,7.476,1.494,11.23c0.142,20.932,0.075,41.865,0.071,62.798
			c0,0.519-0.091,1.038-0.167,1.843c-9.521,0-18.919,0-28.316,0c-6.822,0-6.822,0-6.822-6.862c0-15.401,0.059-30.803-0.059-46.204
			c-0.019-2.546-0.383-5.259-1.329-7.595c-2.176-5.374-6.444-7.552-12.572-7.02c-5.34,0.464-9.574,3.967-10.784,9.296
			c-0.57,2.512-0.824,5.147-0.836,7.728c-0.074,15.618-0.092,31.237,0.013,46.855c0.019,2.854-0.608,3.958-3.783,3.887
			c-10.295-0.227-20.598-0.085-31.174-0.085C975.629,160.027,975.629,127.683,975.629,95.046z"/>
		<path fill="#FFFFFF" d="M1453.417,152.632c-0.621,6.362,5.784,12.047,11.108,13.286c8.221,1.913,15.971,1.596,21.85-5.799
			c0.545-0.685,2.172-1.142,3.014-0.861c9.22,3.083,18.383,6.335,27.953,9.677c-1.998,5.434-5.27,9.672-9.288,13.251
			c-13.91,12.393-30.461,14.47-48.075,11.762c-12.361-1.9-22.737-7.532-30.618-17.363c-6.631-8.272-9.929-17.772-10.692-28.368
			c-0.932-12.947,1.92-24.734,9.616-35.209c9.609-13.078,22.795-19.583,38.836-20.448c12.368-0.666,23.957,1.935,34.06,9.396
			c10.558,7.796,16.414,18.593,18.514,31.359c0.872,5.301,0.732,10.765,1.116,16.15c0.19,2.668-1.117,3.221-3.539,3.211
			c-19.843-0.078-39.687-0.044-59.53-0.045C1456.354,152.632,1454.964,152.632,1453.417,152.632z M1486.927,132.138
			c-0.619-1.846-0.908-3.233-1.523-4.457c-4.52-8.998-19.669-11.413-27.398-4.266c-1.694,1.567-3.085,3.628-4.109,5.71
			c-1.327,2.698-0.729,3.405,2.341,3.415c9.208,0.029,18.417,0.019,27.626-0.004C1484.684,132.534,1485.502,132.33,1486.927,132.138
			z"/>
		<path fill="#FFFFFF" d="M831.312,95.052c2.93,0,5.527,0.002,8.125-0.001c4.647-0.005,4.642-0.007,4.701-4.547
			c0.114-8.741,2.152-16.925,7.04-24.282c5.743-8.645,14.159-13.278,24-15.381c8.57-1.832,17.199-1.78,25.742,0.657
			c2.414,0.689,3.48,1.683,3.404,4.463c-0.23,8.415-0.083,16.84-0.083,24.791c-4.657-0.259-9.17-1.031-13.578-0.633
			c-6.781,0.613-10.73,4.925-11.575,11.23c-0.344,2.563,0.249,3.807,3.175,3.751c6.716-0.129,13.437,0.013,20.156,0.053
			c0.09,0.001,0.18,0.096,0.659,0.367c0,4.397,0,9.026,0,13.655c0,3.579-0.171,7.169,0.06,10.734c0.174,2.686-0.626,3.66-3.4,3.569
			c-5.525-0.181-11.071,0.147-16.588-0.128c-3.341-0.166-4.262,0.979-4.244,4.209c0.115,20.606,0.059,41.213,0.059,61.82
			c0,0.851,0,1.702,0,2.803c-11.604,0-23.011,0-34.824,0c0-1.182,0-2.333,0-3.485c0-20.39-0.072-40.78,0.072-61.169
			c0.023-3.336-0.98-4.463-4.26-4.157c-2.773,0.259-5.588,0.053-8.639,0.053C831.312,113.836,831.312,104.593,831.312,95.052z"/>
		<path fill="#FFFFFF" d="M1405.768,128.074c-5.268-1.443-10.055-3.296-15.003-3.98c-7.043-0.974-13.544,1.015-18.811,6.055
			c-5.726,5.479-6.557,12.341-4.63,19.523c1.875,6.991,7.091,10.91,13.843,12.874c7.974,2.32,15.406,0.688,22.484-3.279
			c0.533-0.299,1.117-0.506,2.104-0.946c0,5.441,0,10.49,0,15.539c0,4.553,0.12,9.111-0.087,13.654
			c-0.049,1.083-0.944,2.684-1.869,3.088c-20.152,8.803-48.812,5.039-63.887-16.168c-8.705-12.246-10.79-26.165-8.242-40.611
			c3.046-17.265,12.656-30.002,28.962-36.917c14.023-5.947,28.388-6.062,42.668-0.581c0.999,0.383,2.347,1.651,2.362,2.528
			C1405.83,108.693,1405.768,118.538,1405.768,128.074z"/>
		<path fill="#FFFFFF" d="M917.997,95.045c11.034,0,21.763,0.046,32.49-0.038c2.193-0.017,2.806,0.861,2.804,2.891
			c-0.034,30.568-0.029,61.136-0.009,91.704c0.001,1.77-0.363,2.865-2.504,2.853c-10.833-0.063-21.667-0.029-32.781-0.029
			C917.997,159.991,917.997,127.678,917.997,95.045z"/>
		<path fill="#FFFFFF" d="M935.489,48c11.057-0.001,19.837,8.74,19.818,19.733c-0.017,10.218-9.431,19.346-19.819,19.216
			c-10.82-0.136-19.831-9.014-19.861-19.569C915.598,56.795,924.611,48.001,935.489,48z"/>
	</g>
</g>
</svg>
